<?xml version="1.0" encoding="iso-8859-1"?>
<!-- Uploaded to: SVG Repo, www.svgrepo.com, Generator: SVG Repo Mixer Tools -->
<svg height="800px" width="800px" version="1.1" id="Layer_1" xmlns="http://www.w3.org/2000/svg" xmlns:xlink="http://www.w3.org/1999/xlink" 
	 viewBox="0 0 512 512" xml:space="preserve">
<path style="fill:#FFF173;" d="M501.498,463.177V327.909c0-10.194-3.971-19.779-11.179-26.988
	c-7.209-7.209-16.793-11.179-26.988-11.179s-19.78,3.971-26.988,11.178l-40.647,40.647l-85.642-85.642l85.945-85.946l40.647,40.647
	c7.209,7.209,16.794,11.178,26.99,11.178c10.194,0,19.778-3.971,26.987-11.178c7.209-7.209,11.179-16.794,11.179-26.988
	l-0.001-135.271c-0.001-10.194-3.971-19.778-11.179-26.988c-7.209-7.209-16.794-11.178-26.988-11.179L328.363,10.2
	c-10.194,0-19.779,3.971-26.988,11.179c-7.209,7.209-11.179,16.793-11.179,26.987c0,10.195,3.971,19.78,11.178,26.988l40.647,40.647
	l-85.945,85.946l-85.642-85.642l40.646-40.647c7.209-7.209,11.178-16.794,11.178-26.99c0-10.194-3.97-19.778-11.178-26.987
	s-16.794-11.178-26.988-11.179H48.823c-10.194,0.001-19.778,3.971-26.988,11.179c-7.209,7.209-11.178,16.794-11.179,26.987v135.27
	c0,10.194,3.971,19.779,11.179,26.988c7.209,7.209,16.793,11.179,26.988,11.179s19.78-3.971,26.988-11.178l40.647-40.647
	l85.643,85.642l-86.099,86.099l-40.647-40.647c-7.209-7.209-16.794-11.178-26.99-11.178c-10.194,0-19.778,3.971-26.987,11.178
	s-11.179,16.794-11.179,26.988l0.001,135.271c0.001,10.194,3.971,19.778,11.179,26.988c7.209,7.209,16.794,11.178,26.988,11.179
	h135.269c10.194,0,19.779-3.971,26.988-11.179c7.209-7.209,11.179-16.793,11.179-26.987c0-10.195-3.971-19.78-11.178-26.988
	l-40.647-40.647l86.099-86.099l85.642,85.642l-40.647,40.647c-7.209,7.209-11.178,16.794-11.178,26.99
	c0,10.194,3.97,19.778,11.178,26.987c7.209,7.209,16.794,11.178,26.988,11.179h135.27c10.194-0.001,19.778-3.971,26.987-11.179
	C497.527,482.956,501.497,473.372,501.498,463.177z"/>
<g>
	<path style="fill:#248A9C;" d="M48.367,512c-12.919-0.001-25.066-5.033-34.2-14.167C5.032,488.699,0.001,476.554,0,463.634V328.363
		c0-12.919,5.031-25.065,14.167-34.2c9.136-9.134,21.281-14.166,34.199-14.166c12.921,0,25.068,5.031,34.202,14.166l33.434,33.434
		l71.674-71.674l-71.219-71.218l-33.433,33.435c-9.135,9.134-21.281,14.166-34.201,14.166c-12.918,0-25.064-5.031-34.199-14.167
		s-14.167-21.281-14.167-34.2V48.67C0.458,35.75,5.489,23.605,14.624,14.471C23.759,5.336,35.904,0.304,48.823,0.303l135.271,0.001
		c12.919,0,25.065,5.031,34.2,14.168c9.134,9.132,14.166,21.277,14.166,34.196c0,12.922-5.03,25.069-14.166,34.203l-33.434,33.434
		l71.219,71.218l71.521-71.521l-33.435-33.435c-9.134-9.134-14.166-21.28-14.166-34.2c0-12.918,5.032-25.064,14.167-34.2
		c9.136-9.134,21.282-14.166,34.2-14.166L463.633,0c12.919,0.001,25.066,5.033,34.2,14.167c9.134,9.134,14.166,21.28,14.167,34.199
		v135.271c0,12.918-5.031,25.064-14.167,34.2c-9.136,9.134-21.281,14.166-34.199,14.166c-12.919,0.001-25.067-5.03-34.202-14.166
		l-33.434-33.434l-71.521,71.521l71.218,71.218l33.435-33.435c9.135-9.134,21.281-14.166,34.2-14.166
		c12.917,0,25.064,5.031,34.199,14.167c9.135,9.135,14.167,21.281,14.168,34.199v135.271v0.001
		c-0.001,12.918-5.032,25.064-14.167,34.198c-9.135,9.135-21.281,14.167-34.199,14.168l-135.27-0.001
		c-12.918,0-25.064-5.031-34.199-14.166c-9.135-9.135-14.167-21.281-14.167-34.199c-0.001-12.918,5.029-25.066,14.165-34.202
		l33.435-33.434l-71.218-71.217l-71.674,71.674l33.435,33.434c9.134,9.134,14.166,21.28,14.166,34.2
		c0,12.918-5.032,25.064-14.167,34.2c-9.136,9.134-21.282,14.166-34.2,14.166L48.367,512z M48.366,300.396
		c-7.47,0-14.492,2.91-19.775,8.191c-5.282,5.283-8.191,12.305-8.192,19.776v135.27c0.001,7.47,2.911,14.494,8.193,19.776
		s12.305,8.191,19.776,8.192l135.268-0.001c7.471,0,14.493-2.91,19.776-8.191c5.282-5.283,8.192-12.306,8.192-19.776
		c0-7.471-2.91-14.494-8.192-19.776l-40.647-40.647c-3.983-3.983-3.983-10.441,0-14.425l86.099-86.099
		c3.983-3.982,10.441-3.982,14.425,0l85.642,85.642c1.912,1.913,2.987,4.507,2.987,7.212s-1.075,5.298-2.987,7.212l-40.647,40.647
		c-5.282,5.283-8.192,12.306-8.191,19.777c0,7.471,2.91,14.494,8.192,19.776c5.282,5.282,12.305,8.191,19.775,8.191l135.269,0.001
		c7.47-0.001,14.493-2.911,19.776-8.192c5.281-5.282,8.191-12.305,8.192-19.777V327.907c0-7.47-2.91-14.493-8.192-19.776
		c-5.283-5.283-12.306-8.192-19.776-8.192c-7.471,0-14.494,2.91-19.776,8.191l-40.647,40.648c-1.912,1.912-4.507,2.987-7.212,2.987
		s-5.3-1.075-7.212-2.987l-85.642-85.643c-3.983-3.983-3.983-10.441,0-14.425l85.945-85.946c1.912-1.912,4.507-2.987,7.212-2.987
		s5.3,1.075,7.212,2.987l40.646,40.647c5.283,5.283,12.306,8.192,19.777,8.191c7.471,0,14.493-2.91,19.776-8.191
		c5.282-5.283,8.192-12.305,8.192-19.776V48.366c-0.001-7.47-2.911-14.494-8.193-19.776c-5.282-5.282-12.305-8.191-19.776-8.192
		l-135.268,0.001c-7.471,0-14.493,2.91-19.776,8.191c-5.282,5.283-8.192,12.306-8.192,19.776c0,7.471,2.91,14.494,8.192,19.776
		l40.647,40.648c3.983,3.983,3.983,10.441,0,14.425l-85.945,85.946c-1.912,1.912-4.507,2.987-7.212,2.987
		c-2.705,0-5.3-1.075-7.212-2.987l-85.643-85.643c-3.983-3.983-3.983-10.441,0-14.425l40.647-40.647
		c5.283-5.282,8.192-12.305,8.191-19.778c0-7.47-2.91-14.493-8.191-19.774c-5.283-5.283-12.305-8.192-19.776-8.192l-135.27,0
		c-7.47,0.001-14.493,2.911-19.775,8.193S20.855,41.2,20.854,48.671V183.94c0,7.47,2.91,14.493,8.192,19.777
		c5.283,5.282,12.305,8.191,19.775,8.191c7.471,0,14.494-2.91,19.776-8.191l40.647-40.647c3.983-3.982,10.441-3.982,14.425,0
		l85.642,85.642c1.912,1.913,2.987,4.507,2.987,7.212c0,2.705-1.075,5.298-2.987,7.212l-86.099,86.099
		c-1.912,1.912-4.507,2.987-7.212,2.987s-5.3-1.075-7.212-2.987l-40.646-40.647C62.862,303.305,55.839,300.396,48.366,300.396z"/>
	<path style="fill:#248A9C;" d="M40.797,142.678c-5.633,0-10.199-4.567-10.199-10.199v-2.949c0-5.632,4.566-10.199,10.199-10.199
		s10.199,4.567,10.199,10.199v2.949C50.996,138.11,46.43,142.678,40.797,142.678z"/>
	<path style="fill:#248A9C;" d="M40.797,109.938c-5.633,0-10.199-4.567-10.199-10.199V50.996c0-5.632,4.566-10.199,10.199-10.199
		s10.199,4.567,10.199,10.199v48.743C50.996,105.371,46.43,109.938,40.797,109.938z"/>
</g>
</svg>